<svg width="88" height="43" viewBox="0 0 88 43" fill="none" xmlns="http://www.w3.org/2000/svg">
<path d="M62.75 33.0625H87.75V8.06247C87.75 7.23367 87.4207 6.43881 86.8347 5.85276C86.2486 5.26671 85.4538 4.93747 84.625 4.93747C83.7962 4.93747 83.0013 5.26671 82.4153 5.85276C81.8292 6.43881 81.5 7.23367 81.5 8.06247V16.4062C81.4996 16.7325 81.3971 17.0504 81.2069 17.3154C81.0166 17.5804 80.7482 17.7793 80.4393 17.8841C80.1303 17.9888 79.7963 17.9943 79.4841 17.8996C79.1719 17.8049 78.8972 17.6149 78.6984 17.3562C73.4967 10.5791 66.4245 5.47327 58.3547 2.66879C50.2848 -0.1357 41.5704 -0.516108 33.2869 1.57451C25.0034 3.66512 17.5132 8.13527 11.7407 14.4333C5.96815 20.7314 2.1659 28.5817 0.803119 37.0156C0.698426 37.6857 0.740107 38.3706 0.925295 39.023C1.11048 39.6755 1.43478 40.2801 1.8759 40.7953C2.31701 41.3105 2.86448 41.7241 3.48064 42.0076C4.09681 42.291 4.76706 42.4377 5.44531 42.4375C6.57285 42.426 7.65926 42.0124 8.5089 41.271C9.35854 40.5297 9.91557 39.5093 10.0797 38.3937C11.1927 31.6478 14.2928 25.3873 18.9834 20.4129C23.6739 15.4385 29.7417 11.9763 36.4107 10.4692C43.0796 8.96219 50.0465 9.47873 56.4203 11.9528C62.7941 14.4269 68.2849 18.746 72.1906 24.3578C72.3537 24.5922 72.4494 24.8669 72.4673 25.1519C72.4852 25.4369 72.4247 25.7213 72.2923 25.9744C72.1599 26.2274 71.9607 26.4393 71.7164 26.587C71.472 26.7348 71.1918 26.8128 70.9062 26.8125H62.75C61.9212 26.8125 61.1263 27.1417 60.5403 27.7278C59.9542 28.3138 59.625 29.1087 59.625 29.9375C59.625 30.7663 59.9542 31.5611 60.5403 32.1472C61.1263 32.7332 61.9212 33.0625 62.75 33.0625Z" fill="white"/>
</svg>
