<svg width="88" height="43" viewBox="0 0 88 43" fill="none" xmlns="http://www.w3.org/2000/svg">
<path d="M86.2 2.12499C85.7736 1.62621 85.2448 1.22524 84.6494 0.949392C84.054 0.673548 83.4062 0.529324 82.75 0.52655H82.5687C81.435 0.540521 80.3438 0.960676 79.4934 1.7107C78.643 2.46073 78.0899 3.49088 77.9344 4.61405C76.9317 11.1533 74.0338 17.2551 69.5993 22.1645C65.1648 27.0738 59.3883 30.5754 52.9844 32.2359C46.142 34.0628 38.9029 33.7381 32.2516 31.3059C25.6002 28.8737 19.8593 24.452 15.8094 18.6422C15.6463 18.4077 15.5506 18.1331 15.5327 17.8481C15.5148 17.5631 15.5753 17.2786 15.7077 17.0256C15.8401 16.7726 16.0393 16.5607 16.2836 16.4129C16.528 16.2652 16.8082 16.1872 17.0938 16.1875H25.25C26.0788 16.1875 26.8737 15.8583 27.4597 15.2722C28.0458 14.6861 28.375 13.8913 28.375 13.0625C28.375 12.2337 28.0458 11.4388 27.4597 10.8528C26.8737 10.2667 26.0788 9.93749 25.25 9.93749H0.25V34.9375C0.25 35.7663 0.57924 36.5611 1.16529 37.1472C1.75134 37.7333 2.5462 38.0625 3.375 38.0625C4.2038 38.0625 4.99866 37.7333 5.58471 37.1472C6.17076 36.5611 6.5 35.7663 6.5 34.9375V26.5937C6.5004 26.2675 6.6029 25.9496 6.79313 25.6845C6.98336 25.4195 7.25177 25.2207 7.56072 25.1159C7.86968 25.0111 8.20368 25.0057 8.51587 25.1004C8.82807 25.195 9.10281 25.385 9.30156 25.6437C14.5149 32.4351 21.6063 37.5476 29.6971 40.3478C37.7879 43.1479 46.5224 43.5125 54.8185 41.3965C63.1145 39.2805 70.6073 34.7768 76.3685 28.4436C82.1298 22.1104 85.9061 14.2259 87.2297 5.76718C87.3308 5.12174 87.2911 4.46208 87.1133 3.83342C86.9356 3.20476 86.624 2.62196 86.2 2.12499Z" fill="white"/>
</svg>
